# xmcd
#
# Track frame offsets: 
#        150
#        19242
#        36707
#        49750
#        65210
#        74672
#        81512
#        90380
#        111937
#        126500
#        136520
#        149945
#        169307
#        183935
#
# Disc length: 2592 seconds
#
# Revision: 0
# Processed by: cddbd v1.5.2PL0 Copyright (c) Steve Scherf et al.
# Submitted via: ExactAudioCopy v0.99pb4
#
DISCID=e10a1e0e
DTITLE=Little Country Giants - Sing Pretty For The People
DYEAR=2006
DGENRE=Country
TTITLE0=Yellow Moon
TTITLE1=Cars, Trucks, and Motorbikes
TTITLE2=So Hard
TTITLE3=Fields Are Burning
TTITLE4=Telegram
TTITLE5=Straight Blade
TTITLE6=Can't Stand The Heartache
TTITLE7=Find Me In Heaven
TTITLE8=Won't Be Missing You
TTITLE9=My Only Friend
TTITLE10=Genuine Dixie Man
TTITLE11=Loathsome Jody Grinder
TTITLE12=One Thing Is Clear
TTITLE13=Gone Away
EXTD=
EXTT0=
EXTT1=
EXTT2=
EXTT3=
EXTT4=
EXTT5=
EXTT6=
EXTT7=
EXTT8=
EXTT9=
EXTT10=
EXTT11=
EXTT12=
EXTT13=
PLAYORDER=
